<?xml version="1.0" encoding="UTF-8" standalone="no"?>
<!-- Created with Inkscape (http://www.inkscape.org/) -->
<svg
   xmlns:dc="http://purl.org/dc/elements/1.1/"
   xmlns:cc="http://creativecommons.org/ns#"
   xmlns:rdf="http://www.w3.org/1999/02/22-rdf-syntax-ns#"
   xmlns:svg="http://www.w3.org/2000/svg"
   xmlns="http://www.w3.org/2000/svg"
   xmlns:sodipodi="http://sodipodi.sourceforge.net/DTD/sodipodi-0.dtd"
   xmlns:inkscape="http://www.inkscape.org/namespaces/inkscape"
   width="64px"
   height="64px"
   id="svg2383"
   sodipodi:version="0.32"
   inkscape:version="0.46"
   sodipodi:docname="logo.svg"
   inkscape:output_extension="org.inkscape.output.svg.inkscape"
   inkscape:export-filename="/home/aeg37/classes/seniordesign/logo.png"
   inkscape:export-xdpi="90"
   inkscape:export-ydpi="90">
  <defs
     id="defs2385">
    <inkscape:perspective
       sodipodi:type="inkscape:persp3d"
       inkscape:vp_x="0 : 32 : 1"
       inkscape:vp_y="0 : 1000 : 0"
       inkscape:vp_z="64 : 32 : 1"
       inkscape:persp3d-origin="32 : 21.333333 : 1"
       id="perspective2391" />
  </defs>
  <sodipodi:namedview
     id="base"
     pagecolor="#ffffff"
     bordercolor="#666666"
     borderopacity="1.0"
     inkscape:pageopacity="0.0"
     inkscape:pageshadow="2"
     inkscape:zoom="5.5"
     inkscape:cx="32"
     inkscape:cy="32"
     inkscape:current-layer="layer1"
     showgrid="true"
     inkscape:document-units="px"
     inkscape:grid-bbox="true"
     inkscape:window-width="1600"
     inkscape:window-height="1178"
     inkscape:window-x="-1"
     inkscape:window-y="0" />
  <metadata
     id="metadata2388">
    <rdf:RDF>
      <cc:Work
         rdf:about="">
        <dc:format>image/svg+xml</dc:format>
        <dc:type
           rdf:resource="http://purl.org/dc/dcmitype/StillImage" />
      </cc:Work>
    </rdf:RDF>
  </metadata>
  <g
     id="layer1"
     inkscape:label="Layer 1"
     inkscape:groupmode="layer">
    <rect
       style="fill:none;fill-opacity:1;stroke:#000000;stroke-width:2.06999993;stroke-miterlimit:4;stroke-dasharray:none;stroke-opacity:1"
       id="rect2401"
       width="19.636364"
       height="0"
       x="25.09091"
       y="50.18182"
       ry="0" />
    <rect
       style="fill:none;fill-opacity:1;stroke:#000000;stroke-width:2.06999993;stroke-miterlimit:4;stroke-dasharray:none;stroke-opacity:1"
       id="rect2405"
       width="16.545454"
       height="26.90909"
       x="24.181818"
       y="17.999998"
       ry="6.9049697" />
    <rect
       style="fill:none;fill-opacity:1;stroke:#000000;stroke-width:2.06999993;stroke-miterlimit:4;stroke-dasharray:none;stroke-opacity:1"
       id="rect2407"
       width="10.181819"
       height="10"
       x="27.09091"
       y="7.818182"
       ry="2.909091" />
    <rect
       style="fill:none;fill-opacity:1;stroke:#000000;stroke-width:2.06999993;stroke-miterlimit:4;stroke-dasharray:none;stroke-opacity:1"
       id="rect2409"
       width="2.7272727"
       height="4.181818"
       x="38.000004"
       y="9.818182"
       ry="1.3636364" />
    <rect
       style="fill:none;fill-opacity:1;stroke:#000000;stroke-width:2.06999993;stroke-miterlimit:4;stroke-dasharray:none;stroke-opacity:1"
       id="rect2419"
       width="2.7272727"
       height="4.181818"
       x="23.181818"
       y="10.454546"
       ry="1.3636364" />
    <rect
       style="fill:none;fill-opacity:1;stroke:#000000;stroke-width:2.06999993;stroke-miterlimit:4;stroke-dasharray:none;stroke-opacity:1"
       id="rect2421"
       width="4.5454545"
       height="10.363636"
       x="25.090906"
       y="44.545456"
       ry="1.3636364" />
    <rect
       style="fill:none;fill-opacity:1;stroke:#000000;stroke-width:2.06999993;stroke-miterlimit:4;stroke-dasharray:none;stroke-opacity:1"
       id="rect2425"
       width="4.5454545"
       height="10.363636"
       x="35.18182"
       y="44.454544"
       ry="1.3636364" />
    <path
       style="fill:none;fill-rule:evenodd;stroke:#000000;stroke-width:1px;stroke-linecap:butt;stroke-linejoin:miter;stroke-opacity:1"
       d="M 4,11.454545 C 6.2173174,11.85334 9.3347773,14.202502 12,15.090909 C 13.735074,15.669267 15.133118,16.181818 16.909091,16.181818"
       id="path2431" />
    <path
       style="fill:none;fill-rule:evenodd;stroke:#000000;stroke-width:1px;stroke-linecap:butt;stroke-linejoin:miter;stroke-opacity:1"
       d="M 5.0909091,22.181818 C 5.7705973,22.408381 8.0322039,22.780778 9.2727273,23.090909 C 11.416807,23.626929 13.564319,23.905318 15.818182,23.454545 C 16.165167,23.385148 16.703953,23.454545 17.090909,23.454545"
       id="path2433" />
    <path
       style="fill:none;fill-rule:evenodd;stroke:#000000;stroke-width:1px;stroke-linecap:butt;stroke-linejoin:miter;stroke-opacity:1"
       d="M 6,31.818182 C 7.0242373,31.613334 8.5195355,31.501277 10,30.909091 C 11.352753,30.36799 12.12698,28.695528 13.454545,28.363636"
       id="path2435" />
    <path
       style="fill:none;fill-rule:evenodd;stroke:#000000;stroke-width:1px;stroke-linecap:butt;stroke-linejoin:miter;stroke-opacity:1"
       d="M 9.0909091,38.545455 C 11.130004,37.729817 14.116481,35.093748 16.545455,33.636364 C 17.905049,32.820607 19.839304,32.232553 21.090909,32.545455 C 24.363636,33.363636 20.030303,32.015152 21.454545,32.727273"
       id="path2437" />
    <path
       style="fill:none;fill-rule:evenodd;stroke:#000000;stroke-width:1px;stroke-linecap:butt;stroke-linejoin:miter;stroke-opacity:1"
       d="M 8.9090909,43.636364 C 9.2941141,43.732619 11.499324,43.454545 12.545455,43.454545 C 14.442783,43.454545 16.280879,43.698431 17.818182,42.545455 C 18.743396,41.851544 18.853877,41.960964 18.545455,40.727273 C 18.249831,39.544777 18.154282,39.538571 19.272727,39.818182"
       id="path2439" />
    <path
       style="fill:none;fill-rule:evenodd;stroke:#000000;stroke-width:1px;stroke-linecap:butt;stroke-linejoin:miter;stroke-opacity:1"
       d="M 16.727273,18.545455 C 16.633739,18.171319 19.619844,19.314052 20.181818,19.454545 C 21.000759,19.659281 21.870139,19.85715 22.545455,20.363636 C 22.762285,20.526259 22.060606,20.606061 21.818182,20.727273"
       id="path2443" />
    <path
       d="M 56.481307,24.226501 L 59.833335,23.663763 L 59.833336,27.796101 C 59.520264,27.699911 59.072151,27.700064 58.728357,28.072577 C 58.040087,28.818343 58.644137,29.656642 59.431838,29.240719 C 59.880062,29.004047 60.029639,28.623853 60.029639,28.050305 L 60.029639,22.913448 L 56.285004,23.476185 L 56.285004,28.622251 C 55.971932,28.526062 55.523819,28.526215 55.180026,28.898728 C 54.491756,29.644494 55.095806,30.482793 55.883507,30.06687 C 56.33173,29.830198 56.481307,29.450004 56.481307,28.876456 L 56.481307,24.226501 z"
       style="fill:#000000;fill-opacity:1;fill-rule:nonzero;stroke:none;stroke-width:0.34999999;stroke-linecap:butt;stroke-linejoin:miter;stroke-miterlimit:4;stroke-dashoffset:0;stroke-opacity:1"
       id="path2796" />
    <path
       d="M 54.299491,40.40832 L 57.651518,39.845582 L 57.651519,43.97792 C 57.338447,43.88173 56.890334,43.881883 56.54654,44.254396 C 55.85827,45.000162 56.46232,45.838461 57.250021,45.422538 C 57.698245,45.185866 57.847822,44.805672 57.847822,44.232124 L 57.847822,39.095267 L 54.103188,39.658004 L 54.103188,44.80407 C 53.790116,44.707881 53.342003,44.708034 52.99821,45.080547 C 52.30994,45.826313 52.91399,46.664612 53.701691,46.248689 C 54.149914,46.012017 54.299491,45.631823 54.299491,45.058275 L 54.299491,40.40832 z"
       style="fill:#000000;fill-opacity:1;fill-rule:nonzero;stroke:none;stroke-width:0.34999999;stroke-linecap:butt;stroke-linejoin:miter;stroke-miterlimit:4;stroke-dashoffset:0;stroke-opacity:1"
       id="path2613" />
    <path
       d="M 46.29949,34.771956 L 49.651518,34.209218 L 49.651519,38.341556 C 49.338447,38.245366 48.890334,38.245519 48.54654,38.618032 C 47.85827,39.363798 48.46232,40.202097 49.250021,39.786174 C 49.698245,39.549502 49.847822,39.169308 49.847822,38.59576 L 49.847822,33.458903 L 46.103187,34.02164 L 46.103187,39.167706 C 45.790115,39.071517 45.342002,39.07167 44.998209,39.444183 C 44.309939,40.189949 44.913989,41.028248 45.70169,40.612325 C 46.149913,40.375653 46.29949,39.995459 46.29949,39.421911 L 46.29949,34.771956 z"
       style="fill:#000000;fill-opacity:1;fill-rule:nonzero;stroke:none;stroke-width:0.34999999;stroke-linecap:butt;stroke-linejoin:miter;stroke-miterlimit:4;stroke-dashoffset:0;stroke-opacity:1"
       id="path2615" />
    <path
       d="M 50.844945,16.226501 L 54.196972,15.663763 L 54.196973,19.796101 C 53.883901,19.699911 53.435788,19.700064 53.091994,20.072577 C 52.403724,20.818343 53.007774,21.656642 53.795475,21.240719 C 54.243699,21.004047 54.393276,20.623853 54.393276,20.050305 L 54.393276,14.913448 L 50.648642,15.476185 L 50.648642,20.622251 C 50.33557,20.526062 49.887457,20.526215 49.543664,20.898728 C 48.855394,21.644494 49.459444,22.482793 50.247145,22.06687 C 50.695368,21.830198 50.844945,21.450004 50.844945,20.876456 L 50.844945,16.226501 z"
       style="fill:#000000;fill-opacity:1;fill-rule:nonzero;stroke:none;stroke-width:0.34999999;stroke-linecap:butt;stroke-linejoin:miter;stroke-miterlimit:4;stroke-dashoffset:0;stroke-opacity:1"
       id="path2617" />
    <path
       d="M 44.29949,23.681047 L 47.651517,23.118309 L 47.651518,27.250647 C 47.338446,27.154457 46.890333,27.15461 46.546539,27.527123 C 45.858269,28.272889 46.462319,29.111188 47.25002,28.695265 C 47.698244,28.458593 47.847821,28.078399 47.847821,27.504851 L 47.847821,22.367994 L 44.103187,22.930731 L 44.103187,28.076797 C 43.790115,27.980608 43.342002,27.980761 42.998209,28.353274 C 42.309939,29.09904 42.913989,29.937339 43.70169,29.521416 C 44.149913,29.284744 44.29949,28.90455 44.29949,28.331002 L 44.29949,23.681047 z"
       style="fill:#000000;fill-opacity:1;fill-rule:nonzero;stroke:none;stroke-width:0.34999999;stroke-linecap:butt;stroke-linejoin:miter;stroke-miterlimit:4;stroke-dashoffset:0;stroke-opacity:1"
       id="path2710" />
  </g>
</svg>
